<svg xmlns="http://www.w3.org/2000/svg" viewBox="0 0 64 64" fill="none">
  <defs>
    <linearGradient id="ig-gradient" x1="8" y1="8" x2="56" y2="56" gradientUnits="userSpaceOnUse">
      <stop stop-color="#4FC3F7" />
      <stop offset="1" stop-color="#B388FF" />
    </linearGradient>
  </defs>
  <rect x="8" y="8" width="48" height="48" rx="14" fill="url(#ig-gradient)" />
  <path
    d="M20 32c0-6.627 5.373-12 12-12h4c4.418 0 8 3.582 8 8v8c0 4.418-3.582 8-8 8h-4c-6.627 0-12-5.373-12-12Z"
    fill="#0A0E1A"
    fill-opacity="0.88"
  />
  <path
    d="M30 26h6c3.314 0 6 2.686 6 6s-2.686 6-6 6h-6v-4h5a2 2 0 1 0 0-4h-5v-4Z"
    fill="white"
  />
</svg>
